<svg xmlns="http://www.w3.org/2000/svg" xmlns:xlink="http://www.w3.org/1999/xlink" width="183" height="37" viewBox="0 0 183 37">
    <defs>
        <linearGradient id="prefix__b" x1="100%" x2="-98.618%" y1="54.098%" y2="37.261%">
            <stop offset="0%" stop-color="#FF4E50"/>
            <stop offset="100%" stop-color="#F9D423"/>
        </linearGradient>
        <path id="prefix__a" d="M1.454 21.8c-.2 0-.37-.07-.51-.21-.14-.14-.21-.31-.21-.51V1.55c0-.22.065-.4.195-.54S1.234.8 1.454.8h8.7c2.34 0 4.09.515 5.25 1.545 1.16 1.03 1.74 2.435 1.74 4.215 0 1.04-.255 1.925-.765 2.655-.51.73-1.105 1.255-1.785 1.575.84.38 1.55 1 2.13 1.86.58.86.87 1.84.87 2.94 0 1.86-.63 3.36-1.89 4.5-1.26 1.14-3.02 1.71-5.28 1.71h-8.97zm8.16-12.39c1.02 0 1.805-.25 2.355-.75s.825-1.17.825-2.01c0-.84-.27-1.49-.81-1.95-.54-.46-1.33-.69-2.37-.69h-4.65v5.4h4.65zm.3 9.18c1.04 0 1.85-.285 2.43-.855.58-.57.87-1.295.87-2.175 0-.88-.295-1.605-.885-2.175-.59-.57-1.395-.855-2.415-.855h-4.95v6.06h4.95zm12.15 3.21c-.2 0-.37-.07-.51-.21-.14-.14-.21-.31-.21-.51V1.55c0-.22.065-.4.195-.54s.305-.21.525-.21h8.04c2.42 0 4.32.57 5.7 1.71 1.38 1.14 2.07 2.8 2.07 4.98 0 2.16-.69 3.795-2.07 4.905-1.38 1.11-3.28 1.665-5.7 1.665h-4.41v7.02c0 .22-.07.395-.21.525-.14.13-.32.195-.54.195h-2.88zm7.89-11.1c1.16 0 2.045-.275 2.655-.825.61-.55.915-1.355.915-2.415 0-1.04-.295-1.85-.885-2.43-.59-.58-1.485-.87-2.685-.87h-4.32v6.54h4.32zm8.55 11.1c-.18 0-.33-.06-.45-.18s-.18-.27-.18-.45l.06-.27 7.2-19.35c.2-.5.56-.75 1.08-.75h3.3c.52 0 .88.25 1.08.75l7.2 19.35.06.27c0 .18-.065.33-.195.45s-.275.18-.435.18h-2.67c-.42 0-.71-.19-.87-.57l-1.38-3.63h-8.88l-1.38 3.63c-.16.38-.45.57-.87.57h-2.67zm5.97-7.68h6.78l-3.39-9.24-3.39 9.24zm23.16 7.98c-1.8 0-3.34-.27-4.62-.81-1.28-.54-2.25-1.25-2.91-2.13-.66-.88-1.01-1.84-1.05-2.88 0-.16.06-.305.18-.435s.27-.195.45-.195h2.73c.22 0 .4.05.54.15.14.1.27.24.39.42.2.68.655 1.25 1.365 1.71.71.46 1.685.69 2.925.69 1.4 0 2.455-.235 3.165-.705s1.065-1.115 1.065-1.935c0-.54-.18-.99-.54-1.35-.36-.36-.905-.675-1.635-.945-.73-.27-1.815-.595-3.255-.975-2.36-.56-4.09-1.3-5.19-2.22-1.1-.92-1.65-2.24-1.65-3.96 0-1.16.32-2.195.96-3.105.64-.91 1.555-1.625 2.745-2.145C64.49.76 65.874.5 67.454.5c1.66 0 3.095.29 4.305.87 1.21.58 2.13 1.305 2.76 2.175.63.87.965 1.735 1.005 2.595 0 .16-.06.305-.18.435s-.27.195-.45.195h-2.85c-.44 0-.74-.18-.9-.54-.1-.64-.49-1.175-1.17-1.605-.68-.43-1.52-.645-2.52-.645-1.1 0-1.965.21-2.595.63-.63.42-.945 1.03-.945 1.83 0 .54.16.99.48 1.35.32.36.82.675 1.5.945.68.27 1.67.575 2.97.915 1.78.4 3.195.85 4.245 1.35 1.05.5 1.825 1.13 2.325 1.89.5.76.75 1.73.75 2.91 0 1.3-.355 2.425-1.065 3.375-.71.95-1.71 1.675-3 2.175-1.29.5-2.785.75-4.485.75z"/>
    </defs>
    <g fill="none" fill-rule="evenodd">
        <g transform="translate(0 .5) translate(47.728 .5)">
            <use fill="#F3B93E" xlink:href="#prefix__a"/>
            <use fill="url(#prefix__b)" xlink:href="#prefix__a"/>
            <path fill="#FF554E" d="M.706 33.616c-.053 0-.094-.018-.124-.056-.029-.037-.038-.082-.028-.136l1.104-5.208c.011-.058.039-.106.084-.144.046-.037.095-.056.148-.056h2.264c.512 0 .912.11 1.2.328.288.22.432.515.432.888 0 .112-.01.22-.032.32-.058.294-.176.534-.352.72-.176.187-.362.323-.56.408.166.091.299.222.4.392.102.171.152.366.152.584 0 .112-.01.214-.032.304-.112.512-.346.916-.704 1.212-.357.296-.853.444-1.488.444H.706zm2.856-3.304c.31 0 .562-.086.756-.26.195-.173.292-.396.292-.668 0-.34-.221-.512-.664-.512H2.65l-.304 1.44h1.216zm-.424 2.448c.208 0 .395-.048.56-.144.166-.096.294-.222.384-.38.091-.157.136-.326.136-.508 0-.389-.242-.584-.728-.584H2.162l-.344 1.616h1.32zm4.36.936c-.458 0-.805-.128-1.04-.384-.234-.256-.352-.605-.352-1.048 0-.133.014-.288.04-.464.022-.149.059-.325.112-.528.15-.576.395-1.036.736-1.38.342-.344.787-.516 1.336-.516.31 0 .552.047.728.14.176.094.318.226.424.396l.056-.264c.011-.058.039-.105.084-.14.046-.034.095-.052.148-.052h.64c.059 0 .103.02.132.056.03.038.039.083.028.136l-.8 3.776c-.01.06-.038.106-.084.14-.045.035-.094.052-.148.052h-.64c-.058 0-.102-.018-.132-.056-.029-.037-.038-.082-.028-.136l.064-.296c-.186.187-.377.328-.572.424-.194.096-.438.144-.732.144zm.368-.864c.304 0 .558-.098.76-.296.203-.197.339-.437.408-.72.054-.218.096-.424.128-.616.016-.09.024-.176.024-.256 0-.208-.056-.377-.168-.508-.112-.13-.29-.196-.536-.196-.538 0-.912.352-1.12 1.056-.042.144-.077.304-.104.48-.021.16-.032.278-.032.352 0 .224.048.398.144.52.096.123.262.184.496.184zm3.12.784c-.058 0-.102-.018-.132-.056-.029-.037-.038-.082-.028-.136l.808-3.776c.011-.058.039-.105.084-.14.046-.034.095-.052.148-.052h.664c.059 0 .102.02.128.056.027.038.035.083.024.136l-.072.328c.176-.18.382-.326.616-.436.235-.109.494-.164.776-.164.438 0 .772.11 1.004.328.232.22.348.526.348.92 0 .155-.021.34-.064.552l-.48 2.248c-.01.06-.038.106-.084.14-.045.035-.094.052-.148.052h-.712c-.058 0-.102-.018-.132-.056-.029-.037-.038-.082-.028-.136l.464-2.2c.038-.186.056-.325.056-.416 0-.192-.052-.334-.156-.428-.104-.093-.27-.14-.5-.14-.298 0-.552.087-.76.26-.208.174-.346.415-.416.724l-.464 2.2c-.01.06-.038.106-.084.14-.045.035-.094.052-.148.052h-.712zm5 0c-.058 0-.102-.018-.132-.056-.029-.037-.038-.082-.028-.136l1.136-5.296c.011-.058.038-.105.08-.14.043-.034.091-.052.144-.052h.664c.059 0 .103.02.132.056.03.038.039.083.028.136l-.576 2.696 1.552-1.232c.016-.01.044-.03.084-.06.04-.029.079-.049.116-.06.038-.01.08-.016.128-.016h.832c.043 0 .078.012.104.036.027.024.04.055.04.092 0 .075-.037.14-.112.192l-1.968 1.6 1.4 1.96c.027.038.04.072.04.104 0 .048-.018.09-.056.124-.037.035-.082.052-.136.052h-.744c-.112 0-.194-.042-.248-.128l-1.24-1.704-.352 1.64c-.01.06-.037.106-.08.14-.042.035-.09.052-.144.052h-.664zm6.312 0c-.053 0-.094-.018-.124-.056-.029-.037-.038-.082-.028-.136l1.104-5.208c.011-.058.039-.106.084-.144.046-.037.095-.056.148-.056h2.056c.566 0 1.014.118 1.344.352.331.235.496.574.496 1.016 0 .123-.016.262-.048.416-.25 1.168-1.037 1.752-2.36 1.752h-1.264l-.4 1.872c-.01.06-.038.106-.084.14-.045.035-.094.052-.148.052h-.776zm2.696-2.96c.304 0 .562-.074.772-.224.211-.149.346-.362.404-.64.027-.122.04-.226.04-.312 0-.186-.06-.328-.18-.424-.12-.096-.321-.144-.604-.144H24.25l-.376 1.744h1.12zm3.872 3.04c-.458 0-.805-.128-1.04-.384-.234-.256-.352-.605-.352-1.048 0-.133.014-.288.04-.464.022-.149.059-.325.112-.528.15-.576.395-1.036.736-1.38.342-.344.787-.516 1.336-.516.31 0 .552.047.728.14.176.094.318.226.424.396l.056-.264c.011-.058.039-.105.084-.14.046-.034.095-.052.148-.052h.64c.059 0 .103.02.132.056.03.038.039.083.028.136l-.8 3.776c-.01.06-.038.106-.084.14-.045.035-.094.052-.148.052h-.64c-.058 0-.102-.018-.132-.056-.029-.037-.038-.082-.028-.136l.064-.296c-.186.187-.377.328-.572.424-.194.096-.438.144-.732.144zm.368-.864c.304 0 .558-.098.76-.296.203-.197.339-.437.408-.72.054-.218.096-.424.128-.616.016-.09.024-.176.024-.256 0-.208-.056-.377-.168-.508-.112-.13-.29-.196-.536-.196-.538 0-.912.352-1.12 1.056-.042.144-.077.304-.104.48-.021.16-.032.278-.032.352 0 .224.048.398.144.52.096.123.262.184.496.184zm3.336 2.304c-.037 0-.068-.012-.092-.036-.024-.024-.036-.054-.036-.092 0-.053.014-.096.04-.128l.976-1.536-.784-3.664c-.01-.058.002-.11.036-.156.035-.045.092-.068.172-.068h.608c.107 0 .171.051.192.152l.528 2.608 1.656-2.608c.059-.1.144-.152.256-.152h.696c.043 0 .078.012.104.036.027.024.04.058.04.1 0 .032-.01.067-.032.104l-3.416 5.288c-.058.102-.144.152-.256.152h-.688zm4.432-1.52c-.058 0-.102-.018-.132-.056-.029-.037-.038-.082-.028-.136l.808-3.776c.011-.058.039-.105.084-.14.046-.034.095-.052.148-.052h.632c.054 0 .094.018.12.052.027.035.035.082.024.14l-.056.272c.176-.176.355-.31.536-.404.182-.093.403-.14.664-.14.304 0 .558.063.76.188.203.126.342.3.416.524.384-.474.84-.712 1.368-.712.379 0 .683.106.912.316.23.211.344.52.344.924 0 .171-.018.342-.056.512l-.496 2.296c-.01.06-.037.106-.08.14-.042.035-.09.052-.144.052h-.664c-.058 0-.102-.018-.132-.056-.029-.037-.038-.082-.028-.136l.48-2.232c.027-.112.04-.232.04-.36 0-.394-.186-.592-.56-.592-.213 0-.416.078-.608.232-.192.155-.322.395-.392.72l-.48 2.232c-.01.06-.037.106-.08.14-.042.035-.09.052-.144.052h-.672c-.053 0-.094-.018-.124-.056-.029-.037-.038-.082-.028-.136l.472-2.232c.027-.112.04-.232.04-.36 0-.202-.05-.352-.152-.448-.101-.096-.237-.144-.408-.144-.213 0-.416.078-.608.232-.192.155-.322.395-.392.72l-.472 2.232c-.01.06-.038.106-.084.14-.045.035-.094.052-.148.052h-.68zm8.928.08c-.512 0-.906-.128-1.184-.384-.277-.256-.416-.62-.416-1.096 0-.18.014-.344.04-.488.006-.037.035-.17.088-.4.155-.608.444-1.085.868-1.432.424-.346.93-.52 1.516-.52.528 0 .927.135 1.196.404.27.27.404.64.404 1.108 0 .176-.021.376-.064.6l-.04.168c-.01.054-.038.1-.084.136-.045.038-.097.056-.156.056H45.45l-.016.064c-.016.096-.024.187-.024.272 0 .224.058.407.172.548.115.142.282.212.5.212.304 0 .579-.122.824-.368.059-.058.104-.094.136-.108.032-.013.08-.02.144-.02h.704c.048 0 .086.016.112.048.027.032.035.072.024.12-.037.128-.15.278-.34.448-.189.171-.437.32-.744.444-.306.126-.644.188-1.012.188zm1.416-2.528v-.016c.022-.1.032-.205.032-.312 0-.224-.058-.4-.176-.532-.117-.13-.288-.196-.512-.196-.272 0-.506.095-.704.284-.197.19-.328.442-.392.756v.016h1.752zm1.496 2.448c-.058 0-.102-.018-.132-.056-.029-.037-.038-.082-.028-.136l.808-3.776c.011-.058.039-.105.084-.14.046-.034.095-.052.148-.052h.664c.059 0 .102.02.128.056.027.038.035.083.024.136l-.072.328c.176-.18.382-.326.616-.436.235-.109.494-.164.776-.164.438 0 .772.11 1.004.328.232.22.348.526.348.92 0 .155-.021.34-.064.552l-.48 2.248c-.01.06-.038.106-.084.14-.045.035-.094.052-.148.052h-.712c-.058 0-.102-.018-.132-.056-.029-.037-.038-.082-.028-.136l.464-2.2c.038-.186.056-.325.056-.416 0-.192-.052-.334-.156-.428-.104-.093-.27-.14-.5-.14-.298 0-.552.087-.76.26-.208.174-.346.415-.416.724l-.464 2.2c-.01.06-.038.106-.084.14-.045.035-.094.052-.148.052h-.712zm6.688 0c-.442 0-.769-.084-.98-.252-.21-.168-.316-.42-.316-.756 0-.16.019-.322.056-.488l.392-1.808h-.632c-.058 0-.101-.018-.128-.056-.026-.037-.034-.082-.024-.136l.096-.472c.011-.053.039-.098.084-.136.046-.037.098-.056.156-.056h.624l.288-1.328c.011-.058.038-.105.08-.14.043-.034.091-.052.144-.052h.664c.059 0 .103.02.132.056.03.038.039.083.028.136l-.288 1.328h1c.059 0 .102.02.128.056.027.038.035.083.024.136l-.104.472c-.005.054-.03.1-.076.136-.045.038-.097.056-.156.056h-.992l-.376 1.72c-.032.144-.048.267-.048.368 0 .112.03.195.088.248.059.054.16.08.304.08h.584c.059 0 .102.02.128.056.027.038.035.083.024.136l-.104.504c-.01.06-.038.106-.084.14-.045.035-.094.052-.148.052h-.568zm2.872 0c-.042 0-.077-.013-.104-.04-.026-.026-.04-.06-.04-.104 0-.032.008-.064.024-.096l3.016-5.16c.08-.133.19-.2.328-.2h.936c.139 0 .219.067.24.2l.832 5.16c.011.075-.001.134-.036.176-.034.043-.081.064-.14.064h-.696c-.128 0-.2-.06-.216-.184l-.176-.936h-2.368l-.584.968c-.058.102-.144.152-.256.152h-.76zm2.08-2.048h1.808l-.384-2.464-1.424 2.464zm5.28 2.128c-.432 0-.764-.109-.996-.328-.232-.218-.348-.528-.348-.928 0-.16.022-.34.064-.544l.472-2.248c.011-.053.039-.098.084-.136.046-.037.098-.056.156-.056h.712c.059 0 .102.02.128.056.027.038.035.083.024.136l-.464 2.2c-.037.187-.056.328-.056.424 0 .187.051.327.152.42.102.094.267.14.496.14.288 0 .538-.088.748-.264.211-.176.351-.416.42-.72l.464-2.2c.011-.053.039-.098.084-.136.046-.037.095-.056.148-.056h.72c.054 0 .094.02.12.056.027.038.035.083.024.136l-.8 3.776c-.01.054-.037.1-.08.136-.042.038-.09.056-.144.056h-.664c-.058 0-.102-.018-.132-.056-.029-.037-.038-.082-.028-.136l.072-.328c-.197.214-.394.367-.592.46-.197.094-.458.14-.784.14zm5.312-.08c-.442 0-.769-.084-.98-.252-.21-.168-.316-.42-.316-.756 0-.16.019-.322.056-.488l.392-1.808h-.632c-.058 0-.101-.018-.128-.056-.026-.037-.034-.082-.024-.136l.096-.472c.011-.053.039-.098.084-.136.046-.037.098-.056.156-.056h.624l.288-1.328c.011-.058.038-.105.08-.14.043-.034.091-.052.144-.052h.664c.059 0 .103.02.132.056.03.038.039.083.028.136l-.288 1.328h1c.059 0 .102.02.128.056.027.038.035.083.024.136l-.104.472c-.005.054-.03.1-.076.136-.045.038-.097.056-.156.056h-.992l-.376 1.72c-.032.144-.048.267-.048.368 0 .112.03.195.088.248.059.054.16.08.304.08h.584c.059 0 .102.02.128.056.027.038.035.083.024.136l-.104.504c-.01.06-.038.106-.084.14-.045.035-.094.052-.148.052h-.568zm3.336.08c-.538 0-.958-.129-1.26-.388-.301-.258-.452-.612-.452-1.06 0-.128.011-.248.032-.36.048-.282.099-.517.152-.704.144-.57.411-1.014.8-1.332.39-.317.896-.476 1.52-.476.539 0 .96.131 1.264.392.304.262.456.62.456 1.072 0 .07-.01.184-.032.344-.08.384-.13.62-.152.704-.149.571-.416 1.015-.8 1.332-.384.318-.893.476-1.528.476zm.08-.808c.283 0 .524-.088.724-.264.2-.176.343-.434.428-.776.038-.149.083-.357.136-.624.022-.112.032-.226.032-.344 0-.469-.229-.704-.688-.704-.282 0-.522.091-.72.272-.197.182-.338.44-.424.776-.058.187-.104.395-.136.624-.021.112-.032.23-.032.352 0 .46.227.688.68.688zm2.968.728c-.058 0-.102-.018-.132-.056-.029-.037-.038-.082-.028-.136l.808-3.776c.011-.058.039-.105.084-.14.046-.034.095-.052.148-.052h.632c.054 0 .094.018.12.052.027.035.035.082.024.14l-.056.272c.176-.176.355-.31.536-.404.182-.093.403-.14.664-.14.304 0 .558.063.76.188.203.126.342.3.416.524.384-.474.84-.712 1.368-.712.379 0 .683.106.912.316.23.211.344.52.344.924 0 .171-.018.342-.056.512l-.496 2.296c-.01.06-.037.106-.08.14-.042.035-.09.052-.144.052h-.664c-.058 0-.102-.018-.132-.056-.029-.037-.038-.082-.028-.136l.48-2.232c.027-.112.04-.232.04-.36 0-.394-.186-.592-.56-.592-.213 0-.416.078-.608.232-.192.155-.322.395-.392.72l-.48 2.232c-.01.06-.037.106-.08.14-.042.035-.09.052-.144.052h-.672c-.053 0-.094-.018-.124-.056-.029-.037-.038-.082-.028-.136l.472-2.232c.027-.112.04-.232.04-.36 0-.202-.05-.352-.152-.448-.101-.096-.237-.144-.408-.144-.213 0-.416.078-.608.232-.192.155-.322.395-.392.72l-.472 2.232c-.01.06-.038.106-.084.14-.045.035-.094.052-.148.052h-.68zm8.6.08c-.458 0-.805-.128-1.04-.384-.234-.256-.352-.605-.352-1.048 0-.133.014-.288.04-.464.022-.149.059-.325.112-.528.15-.576.395-1.036.736-1.38.342-.344.787-.516 1.336-.516.31 0 .552.047.728.14.176.094.318.226.424.396l.056-.264c.011-.058.039-.105.084-.14.046-.034.095-.052.148-.052h.64c.059 0 .103.02.132.056.03.038.039.083.028.136l-.8 3.776c-.01.06-.038.106-.084.14-.045.035-.094.052-.148.052h-.64c-.058 0-.102-.018-.132-.056-.029-.037-.038-.082-.028-.136l.064-.296c-.186.187-.377.328-.572.424-.194.096-.438.144-.732.144zm.368-.864c.304 0 .558-.098.76-.296.203-.197.339-.437.408-.72.054-.218.096-.424.128-.616.016-.09.024-.176.024-.256 0-.208-.056-.377-.168-.508-.112-.13-.29-.196-.536-.196-.538 0-.912.352-1.12 1.056-.042.144-.077.304-.104.48-.021.16-.032.278-.032.352 0 .224.048.398.144.52.096.123.262.184.496.184zm4.864.784c-.442 0-.769-.084-.98-.252-.21-.168-.316-.42-.316-.756 0-.16.019-.322.056-.488l.392-1.808h-.632c-.058 0-.101-.018-.128-.056-.026-.037-.034-.082-.024-.136l.096-.472c.011-.053.039-.098.084-.136.046-.037.098-.056.156-.056h.624l.288-1.328c.011-.058.038-.105.08-.14.043-.034.091-.052.144-.052h.664c.059 0 .103.02.132.056.03.038.039.083.028.136l-.288 1.328h1c.059 0 .102.02.128.056.027.038.035.083.024.136l-.104.472c-.005.054-.03.1-.076.136-.045.038-.097.056-.156.056h-.992l-.376 1.72c-.032.144-.048.267-.048.368 0 .112.03.195.088.248.059.054.16.08.304.08h.584c.059 0 .102.02.128.056.027.038.035.083.024.136l-.104.504c-.01.06-.038.106-.084.14-.045.035-.094.052-.148.052h-.568zm2.648-4.84c-.053 0-.094-.018-.124-.056-.029-.037-.038-.082-.028-.136l.128-.584c.006-.053.031-.1.076-.14.046-.04.098-.06.156-.06h.736c.054 0 .096.02.128.056.032.038.043.086.032.144l-.128.584c-.01.054-.038.1-.084.136-.045.038-.094.056-.148.056h-.744zm-.992 4.84c-.058 0-.102-.018-.132-.056-.029-.037-.038-.082-.028-.136l.808-3.776c.011-.058.039-.105.084-.14.046-.034.095-.052.148-.052h.68c.054 0 .094.02.12.056.027.038.035.083.024.136l-.8 3.776c-.01.054-.037.1-.08.136-.042.038-.09.056-.144.056h-.68zm3.8.08c-.538 0-.958-.129-1.26-.388-.301-.258-.452-.612-.452-1.06 0-.128.011-.248.032-.36.048-.282.099-.517.152-.704.144-.57.411-1.014.8-1.332.39-.317.896-.476 1.52-.476.539 0 .96.131 1.264.392.304.262.456.62.456 1.072 0 .07-.01.184-.032.344-.08.384-.13.62-.152.704-.149.571-.416 1.015-.8 1.332-.384.318-.893.476-1.528.476zm.08-.808c.283 0 .524-.088.724-.264.2-.176.343-.434.428-.776.038-.149.083-.357.136-.624.022-.112.032-.226.032-.344 0-.469-.229-.704-.688-.704-.282 0-.522.091-.72.272-.197.182-.338.44-.424.776-.058.187-.104.395-.136.624-.021.112-.032.23-.032.352 0 .46.227.688.68.688zm2.968.728c-.058 0-.102-.018-.132-.056-.029-.037-.038-.082-.028-.136l.808-3.776c.011-.058.039-.105.084-.14.046-.034.095-.052.148-.052h.664c.059 0 .102.02.128.056.027.038.035.083.024.136l-.072.328c.176-.18.382-.326.616-.436.235-.109.494-.164.776-.164.438 0 .772.11 1.004.328.232.22.348.526.348.92 0 .155-.021.34-.064.552l-.48 2.248c-.01.06-.038.106-.084.14-.045.035-.094.052-.148.052h-.712c-.058 0-.102-.018-.132-.056-.029-.037-.038-.082-.028-.136l.464-2.2c.038-.186.056-.325.056-.416 0-.192-.052-.334-.156-.428-.104-.093-.27-.14-.5-.14-.298 0-.552.087-.76.26-.208.174-.346.415-.416.724l-.464 2.2c-.01.06-.038.106-.084.14-.045.035-.094.052-.148.052h-.712zm8.776.08c-.442 0-.82-.06-1.132-.184-.312-.122-.546-.288-.704-.496-.157-.208-.236-.437-.236-.688 0-.037.006-.098.016-.184.006-.042.026-.08.06-.116.035-.034.076-.052.124-.052h.744c.059 0 .104.014.136.04.032.027.059.064.08.112.022.176.114.327.276.452.163.126.399.188.708.188.374 0 .674-.062.9-.188.227-.125.362-.297.404-.516.011-.053.016-.093.016-.12 0-.117-.044-.216-.132-.296-.088-.08-.218-.152-.392-.216-.173-.064-.425-.144-.756-.24-.501-.122-.874-.292-1.12-.508-.245-.216-.368-.497-.368-.844 0-.144.014-.272.04-.384.102-.469.354-.84.756-1.112.403-.272.924-.408 1.564-.408.395 0 .739.068 1.032.204.294.136.518.31.672.52.155.211.232.423.232.636 0 .032-.005.08-.016.144-.01.048-.032.088-.064.12s-.072.048-.12.048h-.776c-.112 0-.181-.048-.208-.144.006-.165-.069-.306-.224-.424-.154-.117-.354-.176-.6-.176-.298 0-.546.056-.744.168-.197.112-.32.275-.368.488-.01.064-.016.112-.016.144 0 .16.086.291.256.392.171.102.47.208.896.32.566.134.979.306 1.24.516.262.211.392.492.392.844 0 .096-.013.22-.04.368-.112.523-.384.92-.816 1.188-.432.27-1.002.404-1.712.404zm3.408 1.44c-.037 0-.068-.012-.092-.036-.024-.024-.036-.054-.036-.092 0-.053.014-.096.04-.128l.976-1.536-.784-3.664c-.01-.058.002-.11.036-.156.035-.045.092-.068.172-.068h.608c.107 0 .171.051.192.152l.528 2.608 1.656-2.608c.059-.1.144-.152.256-.152h.696c.043 0 .078.012.104.036.027.024.04.058.04.1 0 .032-.01.067-.032.104l-3.416 5.288c-.058.102-.144.152-.256.152h-.688zm5.784-1.44c-.378 0-.688-.053-.928-.16-.24-.106-.413-.234-.52-.384-.106-.149-.16-.288-.16-.416 0-.074.024-.134.072-.18.048-.045.099-.068.152-.068h.656c.038 0 .07.022.096.064.027.022.079.072.156.152.078.08.17.143.276.188.107.046.232.068.376.068.24 0 .439-.05.596-.152.158-.1.236-.245.236-.432 0-.117-.069-.212-.208-.284-.138-.072-.405-.153-.8-.244-.373-.085-.649-.206-.828-.364-.178-.157-.268-.358-.268-.604 0-.053.011-.138.032-.256.048-.213.158-.414.328-.604.171-.189.395-.344.672-.464.278-.12.592-.18.944-.18.358 0 .655.056.892.168.238.112.407.247.508.404.102.158.142.298.12.42-.005.054-.029.1-.072.136-.042.038-.088.056-.136.056h-.6c-.053 0-.093-.02-.12-.064l-.152-.152c-.069-.069-.15-.125-.244-.168-.093-.042-.212-.064-.356-.064-.218 0-.394.055-.528.164-.133.11-.2.244-.2.404 0 .102.068.188.204.26.136.072.391.148.764.228.8.16 1.2.496 1.2 1.008 0 .086-.008.168-.024.248-.08.38-.309.686-.688.92-.378.235-.861.352-1.448.352zm4.512-.08c-.442 0-.769-.084-.98-.252-.21-.168-.316-.42-.316-.756 0-.16.019-.322.056-.488l.392-1.808h-.632c-.058 0-.101-.018-.128-.056-.026-.037-.034-.082-.024-.136l.096-.472c.011-.053.039-.098.084-.136.046-.037.098-.056.156-.056h.624l.288-1.328c.011-.058.038-.105.08-.14.043-.034.091-.052.144-.052h.664c.059 0 .103.02.132.056.03.038.039.083.028.136l-.288 1.328h1c.059 0 .102.02.128.056.027.038.035.083.024.136l-.104.472c-.005.054-.03.1-.076.136-.045.038-.097.056-.156.056h-.992l-.376 1.72c-.032.144-.048.267-.048.368 0 .112.03.195.088.248.059.054.16.08.304.08h.584c.059 0 .102.02.128.056.027.038.035.083.024.136l-.104.504c-.01.06-.038.106-.084.14-.045.035-.094.052-.148.052h-.568zm3.352.08c-.512 0-.906-.128-1.184-.384-.277-.256-.416-.62-.416-1.096 0-.18.014-.344.04-.488.006-.037.035-.17.088-.4.155-.608.444-1.085.868-1.432.424-.346.93-.52 1.516-.52.528 0 .927.135 1.196.404.27.27.404.64.404 1.108 0 .176-.021.376-.064.6l-.04.168c-.01.054-.038.1-.084.136-.045.038-.097.056-.156.056h-2.648l-.016.064c-.016.096-.024.187-.024.272 0 .224.058.407.172.548.115.142.282.212.5.212.304 0 .579-.122.824-.368.059-.058.104-.094.136-.108.032-.013.08-.02.144-.02h.704c.048 0 .086.016.112.048.027.032.035.072.024.12-.037.128-.15.278-.34.448-.189.171-.437.32-.744.444-.306.126-.644.188-1.012.188zm1.416-2.528v-.016c.022-.1.032-.205.032-.312 0-.224-.058-.4-.176-.532-.117-.13-.288-.196-.512-.196-.272 0-.506.095-.704.284-.197.19-.328.442-.392.756v.016h1.752zm1.496 2.448c-.058 0-.102-.018-.132-.056-.029-.037-.038-.082-.028-.136l.808-3.776c.011-.058.039-.105.084-.14.046-.034.095-.052.148-.052h.632c.054 0 .094.018.12.052.027.035.035.082.024.14l-.056.272c.176-.176.355-.31.536-.404.182-.093.403-.14.664-.14.304 0 .558.063.76.188.203.126.342.3.416.524.384-.474.84-.712 1.368-.712.379 0 .683.106.912.316.23.211.344.52.344.924 0 .171-.018.342-.056.512l-.496 2.296c-.01.06-.037.106-.08.14-.042.035-.09.052-.144.052h-.664c-.058 0-.102-.018-.132-.056-.029-.037-.038-.082-.028-.136l.48-2.232c.027-.112.04-.232.04-.36 0-.394-.186-.592-.56-.592-.213 0-.416.078-.608.232-.192.155-.322.395-.392.72l-.48 2.232c-.01.06-.037.106-.08.14-.042.035-.09.052-.144.052h-.672c-.053 0-.094-.018-.124-.056-.029-.037-.038-.082-.028-.136l.472-2.232c.027-.112.04-.232.04-.36 0-.202-.05-.352-.152-.448-.101-.096-.237-.144-.408-.144-.213 0-.416.078-.608.232-.192.155-.322.395-.392.72l-.472 2.232c-.01.06-.038.106-.084.14-.045.035-.094.052-.148.052h-.68z"/>
        </g>
        <g>
            <path fill="#EE9838" d="M0 0H12V12H0z" transform="translate(0 .5) translate(.217)"/>
            <path fill="#F3B93E" d="M12 0H24V12H12z" transform="translate(0 .5) translate(.217)"/>
            <path fill="#F6D244" d="M24 0H36V12H24z" transform="translate(0 .5) translate(.217)"/>
            <path fill="#F3B93E" d="M24 12H36V24H24z" transform="translate(0 .5) translate(.217)"/>
            <path fill="#EE9838" d="M24 24H36V36H24z" transform="translate(0 .5) translate(.217)"/>
            <path fill="#E97A32" d="M0 12H12V24H0z" transform="translate(0 .5) translate(.217)"/>
            <path fill="#E45C13" d="M0 24H12V36H0z" transform="translate(0 .5) translate(.217)"/>
            <path fill="#EA7B32" d="M12 24H24V36H12z" transform="translate(0 .5) translate(.217)"/>
        </g>
    </g>
</svg>
